# xmcd
#
# Track frame offsets: 
#        150
#        30617
#        88052
#        128267
#        186992
#
# Disc length: 3015 seconds
#
# Revision: 0
# Processed by: cddbd v1.5.2PL0 Copyright (c) Steve Scherf et al.
# Submitted via: ExactAudioCopy v1.0b1
#
DISCID=360bc505
DTITLE=Derek and the Dominos  - The Beat Goes On - Early Show - Disc 3
DYEAR=1900
DGENRE=
TTITLE0=Bottle of Red Wine
TTITLE1=Got to Get Better in a Little While
TTITLE2=Crossroads
TTITLE3=Got to Get Better in a Little While
TTITLE4=Why Does Love Got to Be So Sad?
EXTD=
EXTT0=
EXTT1=
EXTT2=
EXTT3=
EXTT4=
PLAYORDER=
